# MagicaVoxel @ Ephtracy

# group
o 

# material
mtllib ship.mtl
usemtl palette

# normals
vn -1 0 0
vn 1 0 0
vn 0 0 1
vn 0 0 -1
vn 0 -1 0
vn 0 1 0

# texcoords
vt 0.103516 0.5
vt 0.166016 0.5
vt 0.189453 0.5
vt 0.263672 0.5
vt 0.267578 0.5
vt 0.912109 0.5

# verts
v 1.5 4 -1.6
v 1.5 4 -1.7
v 1.5 4.1 -1.6
v 1.5 4.1 -1.7
v 1.6 3.9 -1.6
v 1.6 3.9 -1.7
v 1.6 4 -1.6
v 1.6 4 -1.7
v 1.6 4.1 -1.6
v 1.6 4.1 -1.7
v 1.6 4.2 -1.6
v 1.6 4.2 -1.7
v 1.7 2 -1.6
v 1.7 2 -1.8
v 1.7 2.2 -1.4
v 1.7 2.2 -1.6
v 1.7 2.2 -1.8
v 1.7 2.2 -2
v 1.7 2.3 -1.7
v 1.7 2.3 -1.9
v 1.7 2.4 -1.4
v 1.7 2.4 -1.7
v 1.7 2.4 -1.9
v 1.7 2.4 -2
v 1.8 2.2 -1.2
v 1.8 2.2 -1.4
v 1.8 2.2 -2
v 1.8 2.2 -2.2
v 1.8 2.4 -1.2
v 1.8 2.4 -1.4
v 1.8 2.4 -2
v 1.8 2.4 -2.2
v 1.8 3.8 -1.6
v 1.8 3.8 -1.7
v 1.8 3.9 -1.6
v 1.8 3.9 -1.7
v 1.8 4.2 -1.6
v 1.8 4.2 -1.7
v 1.8 4.3 -1.6
v 1.8 4.3 -1.7
v 1.9 2.2 -1
v 1.9 2.2 -1.2
v 1.9 2.2 -2.2
v 1.9 2.2 -2.4
v 1.9 2.4 -1
v 1.9 2.4 -1.2
v 1.9 2.4 -1.6
v 1.9 2.4 -1.7
v 1.9 2.4 -2.2
v 1.9 2.4 -2.4
v 1.9 3.8 -1.6
v 1.9 3.8 -1.7
v 1.9 4.3 -1.6
v 1.9 4.3 -1.7
v 1.9 4.4 -1.6
v 1.9 4.4 -1.7
v 2 2.2 -0.9
v 2 2.2 -1
v 2 2.2 -2.4
v 2 2.2 -2.5
v 2 2.4 -0.9
v 2 2.4 -1
v 2 2.4 -2.4
v 2 2.4 -2.5
v 2.2 2.2 -0.8
v 2.2 2.2 -0.9
v 2.2 2.2 -2.5
v 2.2 2.2 -2.6
v 2.2 2.4 -0.8
v 2.2 2.4 -0.9
v 2.2 2.4 -2.5
v 2.2 2.4 -2.6
v 2.4 2.2 -0.7
v 2.4 2.2 -0.8
v 2.4 2.2 -2.6
v 2.4 2.2 -2.7
v 2.4 2.4 -0.7
v 2.4 2.4 -0.8
v 2.4 2.4 -2.6
v 2.4 2.4 -2.7
v 2.6 2 -0.7
v 2.6 2 -0.9
v 2.6 2 -1
v 2.6 2 -1.3
v 2.6 2 -1.4
v 2.6 2 -1.6
v 2.6 2 -1.8
v 2.6 2 -2.1
v 2.6 2 -2.2
v 2.6 2 -2.4
v 2.6 2 -2.5
v 2.6 2 -2.7
v 2.6 2.2 -0.7
v 2.6 2.2 -0.9
v 2.6 2.2 -1
v 2.6 2.2 -1.3
v 2.6 2.2 -1.4
v 2.6 2.2 -1.6
v 2.6 2.2 -1.8
v 2.6 2.2 -2.1
v 2.6 2.2 -2.2
v 2.6 2.2 -2.4
v 2.6 2.2 -2.5
v 2.6 2.2 -2.7
v 2 2.4 -1.6
v 2 2.4 -1.7
v 2 4.4 -1.6
v 2 4.4 -1.7
v 2.8 2 -0.7
v 2.8 2 -0.9
v 2.8 2 -1
v 2.8 2 -1.3
v 2.8 2 -1.4
v 2.8 2 -1.6
v 2.8 2 -1.8
v 2.8 2 -2.1
v 2.8 2 -2.2
v 2.8 2 -2.4
v 2.8 2 -2.5
v 2.8 2 -2.7
v 2.8 2.2 -0.7
v 2.8 2.2 -0.9
v 2.8 2.2 -1
v 2.8 2.2 -1.3
v 2.8 2.2 -1.4
v 2.8 2.2 -1.6
v 2.8 2.2 -1.8
v 2.8 2.2 -2.1
v 2.8 2.2 -2.2
v 2.8 2.2 -2.4
v 2.8 2.2 -2.5
v 2.8 2.2 -2.7
v 3 2.2 -0.7
v 3 2.2 -0.8
v 3 2.2 -2.6
v 3 2.2 -2.7
v 3 2.4 -0.7
v 3 2.4 -0.8
v 3 2.4 -2.6
v 3 2.4 -2.7
v 3.2 2.2 -0.8
v 3.2 2.2 -0.9
v 3.2 2.2 -2.5
v 3.2 2.2 -2.6
v 3.2 2.3 -0.9
v 3.2 2.4 -0.8
v 3.2 2.4 -0.9
v 3.2 2.4 -2.5
v 3.2 2.4 -2.6
v 3.4 2.2 -0.9
v 3.4 2.2 -1
v 3.4 2.2 -2.4
v 3.4 2.2 -2.5
v 3.4 2.4 -0.9
v 3.4 2.4 -1
v 3.4 2.4 -2.4
v 3.4 2.4 -2.5
v 3.5 2.2 -1
v 3.5 2.2 -1.2
v 3.5 2.2 -2.2
v 3.5 2.2 -2.4
v 3.5 2.4 -1
v 3.5 2.4 -1.2
v 3.5 2.4 -2.2
v 3.5 2.4 -2.4
v 3.6 2.2 -1.2
v 3.6 2.2 -1.4
v 3.6 2.2 -2
v 3.6 2.2 -2.2
v 3.6 2.4 -1.2
v 3.6 2.4 -1.4
v 3.6 2.4 -2
v 3.6 2.4 -2.2
v 3.7 2 -1.6
v 3.7 2 -1.8
v 3.7 2.2 -1.4
v 3.7 2.2 -1.6
v 3.7 2.2 -1.8
v 3.7 2.2 -2
v 3.7 2.4 -1.4
v 3.7 2.4 -2
v 2.4 2.2 -0.7
v 2.4 2.4 -0.7
v 2.5 2.2 -0.7
v 2.5 2.4 -0.7
v 2.6 2 -0.7
v 2.6 2.2 -0.7
v 2.8 2 -0.7
v 2.8 2.2 -0.7
v 2.9 2.2 -0.7
v 2.9 2.4 -0.7
v 3 2.2 -0.7
v 3 2.4 -0.7
v 2.2 2.2 -0.8
v 2.2 2.4 -0.8
v 2.4 2.2 -0.8
v 2.4 2.4 -0.8
v 3 2.2 -0.8
v 3 2.4 -0.8
v 3.2 2.2 -0.8
v 3.2 2.4 -0.8
v 2 2.2 -0.9
v 2 2.4 -0.9
v 2.2 2.2 -0.9
v 2.2 2.4 -0.9
v 3.2 2.2 -0.9
v 3.2 2.3 -0.9
v 3.2 2.4 -0.9
v 3.3 2.3 -0.9
v 3.3 2.4 -0.9
v 3.4 2.2 -0.9
v 3.4 2.4 -0.9
v 1.9 2.2 -1
v 1.9 2.4 -1
v 2 2.2 -1
v 2 2.4 -1
v 3.4 2.2 -1
v 3.4 2.4 -1
v 3.5 2.2 -1
v 3.5 2.4 -1
v 1.8 2.2 -1.2
v 1.8 2.4 -1.2
v 1.9 2.2 -1.2
v 1.9 2.4 -1.2
v 3.5 2.2 -1.2
v 3.5 2.4 -1.2
v 3.6 2.2 -1.2
v 3.6 2.4 -1.2
v 1.7 2.2 -1.4
v 1.7 2.4 -1.4
v 1.8 2.2 -1.4
v 1.8 2.4 -1.4
v 3.6 2.2 -1.4
v 3.6 2.4 -1.4
v 3.7 2.2 -1.4
v 3.7 2.4 -1.4
v 1.5 4 -1.6
v 1.5 4.1 -1.6
v 1.6 3.9 -1.6
v 1.6 4 -1.6
v 1.6 4.1 -1.6
v 1.6 4.2 -1.6
v 1.7 2 -1.6
v 1.7 2.2 -1.6
v 1.8 3.8 -1.6
v 1.8 3.9 -1.6
v 1.8 4.2 -1.6
v 1.8 4.3 -1.6
v 1.9 2 -1.6
v 1.9 2.2 -1.6
v 1.9 2.4 -1.6
v 1.9 3.8 -1.6
v 1.9 4.3 -1.6
v 1.9 4.4 -1.6
v 2 2 -1.6
v 2 2.2 -1.6
v 2 2.4 -1.6
v 2 4.4 -1.6
v 2.3 2 -1.6
v 2.3 2.2 -1.6
v 2.4 2 -1.6
v 2.4 2.2 -1.6
v 2.6 2 -1.6
v 2.6 2.2 -1.6
v 2.8 2 -1.6
v 2.8 2.2 -1.6
v 3 2 -1.6
v 3 2.2 -1.6
v 3.1 2 -1.6
v 3.1 2.2 -1.6
v 3.4 2 -1.6
v 3.4 2.2 -1.6
v 3.5 2 -1.6
v 3.5 2.2 -1.6
v 3.7 2 -1.6
v 3.7 2.2 -1.6
v 1.5 4 -1.7
v 1.5 4.1 -1.7
v 1.6 3.9 -1.7
v 1.6 4 -1.7
v 1.6 4.1 -1.7
v 1.6 4.2 -1.7
v 1.8 3.8 -1.7
v 1.8 3.9 -1.7
v 1.8 4.2 -1.7
v 1.8 4.3 -1.7
v 1.9 2.4 -1.7
v 1.9 3.8 -1.7
v 1.9 4.3 -1.7
v 1.9 4.4 -1.7
v 2 2.4 -1.7
v 2 4.4 -1.7
v 1.7 2 -1.8
v 1.7 2.2 -1.8
v 1.9 2 -1.8
v 1.9 2.2 -1.8
v 2 2 -1.8
v 2 2.2 -1.8
v 2.3 2 -1.8
v 2.3 2.2 -1.8
v 2.4 2 -1.8
v 2.4 2.2 -1.8
v 2.6 2 -1.8
v 2.6 2.2 -1.8
v 2.8 2 -1.8
v 2.8 2.2 -1.8
v 3 2 -1.8
v 3 2.2 -1.8
v 3.1 2 -1.8
v 3.1 2.2 -1.8
v 3.4 2 -1.8
v 3.4 2.2 -1.8
v 3.5 2 -1.8
v 3.5 2.2 -1.8
v 3.7 2 -1.8
v 3.7 2.2 -1.8
v 1.7 2.2 -2
v 1.7 2.4 -2
v 1.8 2.2 -2
v 1.8 2.4 -2
v 3.6 2.2 -2
v 3.6 2.4 -2
v 3.7 2.2 -2
v 3.7 2.4 -2
v 1.8 2.2 -2.2
v 1.8 2.4 -2.2
v 1.9 2.2 -2.2
v 1.9 2.4 -2.2
v 3.5 2.2 -2.2
v 3.5 2.4 -2.2
v 3.6 2.2 -2.2
v 3.6 2.4 -2.2
v 1.9 2.2 -2.4
v 1.9 2.4 -2.4
v 2 2.2 -2.4
v 2 2.4 -2.4
v 3.4 2.2 -2.4
v 3.4 2.4 -2.4
v 3.5 2.2 -2.4
v 3.5 2.4 -2.4
v 2 2.2 -2.5
v 2 2.4 -2.5
v 2.2 2.2 -2.5
v 2.2 2.4 -2.5
v 3.2 2.2 -2.5
v 3.2 2.4 -2.5
v 3.4 2.2 -2.5
v 3.4 2.4 -2.5
v 2.2 2.2 -2.6
v 2.2 2.4 -2.6
v 2.4 2.2 -2.6
v 2.4 2.4 -2.6
v 3 2.2 -2.6
v 3 2.4 -2.6
v 3.2 2.2 -2.6
v 3.2 2.4 -2.6
v 2.4 2.2 -2.7
v 2.4 2.4 -2.7
v 2.5 2.2 -2.7
v 2.5 2.4 -2.7
v 2.6 2 -2.7
v 2.6 2.2 -2.7
v 2.8 2 -2.7
v 2.8 2.2 -2.7
v 2.9 2.2 -2.7
v 2.9 2.4 -2.7
v 3 2.2 -2.7
v 3 2.4 -2.7
v 2.6 2 -0.7
v 2.8 2 -0.7
v 2.6 2 -0.9
v 2.8 2 -0.9
v 2.6 2 -1
v 2.8 2 -1
v 2.6 2 -1.3
v 2.8 2 -1.3
v 2.6 2 -1.4
v 2.8 2 -1.4
v 1.7 2 -1.6
v 1.9 2 -1.6
v 2 2 -1.6
v 2.3 2 -1.6
v 2.4 2 -1.6
v 2.6 2 -1.6
v 2.8 2 -1.6
v 3 2 -1.6
v 3.1 2 -1.6
v 3.4 2 -1.6
v 3.5 2 -1.6
v 3.7 2 -1.6
v 1.7 2 -1.8
v 1.9 2 -1.8
v 2 2 -1.8
v 2.3 2 -1.8
v 2.4 2 -1.8
v 2.6 2 -1.8
v 2.8 2 -1.8
v 3 2 -1.8
v 3.1 2 -1.8
v 3.4 2 -1.8
v 3.5 2 -1.8
v 3.7 2 -1.8
v 2.6 2 -2.1
v 2.8 2 -2.1
v 2.6 2 -2.2
v 2.8 2 -2.2
v 2.6 2 -2.4
v 2.8 2 -2.4
v 2.6 2 -2.5
v 2.8 2 -2.5
v 2.6 2 -2.7
v 2.8 2 -2.7
v 2.4 2.2 -0.7
v 2.5 2.2 -0.7
v 2.6 2.2 -0.7
v 2.8 2.2 -0.7
v 2.9 2.2 -0.7
v 3 2.2 -0.7
v 2.2 2.2 -0.8
v 2.4 2.2 -0.8
v 2.5 2.2 -0.8
v 2.9 2.2 -0.8
v 3 2.2 -0.8
v 3.2 2.2 -0.8
v 2 2.2 -0.9
v 2.2 2.2 -0.9
v 2.6 2.2 -0.9
v 2.8 2.2 -0.9
v 3.2 2.2 -0.9
v 3.4 2.2 -0.9
v 1.9 2.2 -1
v 2 2.2 -1
v 2.6 2.2 -1
v 2.8 2.2 -1
v 3.4 2.2 -1
v 3.5 2.2 -1
v 1.8 2.2 -1.2
v 1.9 2.2 -1.2
v 2 2.2 -1.2
v 3.4 2.2 -1.2
v 3.5 2.2 -1.2
v 3.6 2.2 -1.2
v 2.6 2.2 -1.3
v 2.8 2.2 -1.3
v 1.7 2.2 -1.4
v 1.8 2.2 -1.4
v 2.6 2.2 -1.4
v 2.8 2.2 -1.4
v 3.6 2.2 -1.4
v 3.7 2.2 -1.4
v 1.7 2.2 -1.6
v 1.9 2.2 -1.6
v 2 2.2 -1.6
v 2.3 2.2 -1.6
v 2.4 2.2 -1.6
v 2.6 2.2 -1.6
v 2.8 2.2 -1.6
v 3 2.2 -1.6
v 3.1 2.2 -1.6
v 3.4 2.2 -1.6
v 3.5 2.2 -1.6
v 3.7 2.2 -1.6
v 1.7 2.2 -1.8
v 1.9 2.2 -1.8
v 2 2.2 -1.8
v 2.3 2.2 -1.8
v 2.4 2.2 -1.8
v 2.6 2.2 -1.8
v 2.8 2.2 -1.8
v 3 2.2 -1.8
v 3.1 2.2 -1.8
v 3.4 2.2 -1.8
v 3.5 2.2 -1.8
v 3.7 2.2 -1.8
v 1.7 2.2 -2
v 1.8 2.2 -2
v 3.6 2.2 -2
v 3.7 2.2 -2
v 2.6 2.2 -2.1
v 2.8 2.2 -2.1
v 1.8 2.2 -2.2
v 1.9 2.2 -2.2
v 2 2.2 -2.2
v 2.6 2.2 -2.2
v 2.8 2.2 -2.2
v 3.4 2.2 -2.2
v 3.5 2.2 -2.2
v 3.6 2.2 -2.2
v 1.9 2.2 -2.4
v 2 2.2 -2.4
v 2.6 2.2 -2.4
v 2.8 2.2 -2.4
v 3.4 2.2 -2.4
v 3.5 2.2 -2.4
v 2 2.2 -2.5
v 2.2 2.2 -2.5
v 2.6 2.2 -2.5
v 2.8 2.2 -2.5
v 3.2 2.2 -2.5
v 3.4 2.2 -2.5
v 2.2 2.2 -2.6
v 2.4 2.2 -2.6
v 2.5 2.2 -2.6
v 2.9 2.2 -2.6
v 3 2.2 -2.6
v 3.2 2.2 -2.6
v 2.4 2.2 -2.7
v 2.5 2.2 -2.7
v 2.6 2.2 -2.7
v 2.8 2.2 -2.7
v 2.9 2.2 -2.7
v 3 2.2 -2.7
v 1.8 3.8 -1.6
v 1.9 3.8 -1.6
v 1.8 3.8 -1.7
v 1.9 3.8 -1.7
v 1.6 3.9 -1.6
v 1.8 3.9 -1.6
v 1.6 3.9 -1.7
v 1.8 3.9 -1.7
v 1.5 4 -1.6
v 1.6 4 -1.6
v 1.5 4 -1.7
v 1.6 4 -1.7
v 2.4 2.4 -0.7
v 2.5 2.4 -0.7
v 2.9 2.4 -0.7
v 3 2.4 -0.7
v 2.2 2.4 -0.8
v 2.4 2.4 -0.8
v 3 2.4 -0.8
v 3.2 2.4 -0.8
v 2 2.4 -0.9
v 2.2 2.4 -0.9
v 2.6 2.4 -0.9
v 2.7 2.4 -0.9
v 3.2 2.4 -0.9
v 3.3 2.4 -0.9
v 3.4 2.4 -0.9
v 1.9 2.4 -1
v 2 2.4 -1
v 3.4 2.4 -1
v 3.5 2.4 -1
v 3.2 2.4 -1.1
v 3.3 2.4 -1.1
v 1.8 2.4 -1.2
v 1.9 2.4 -1.2
v 2.6 2.4 -1.2
v 2.7 2.4 -1.2
v 3.5 2.4 -1.2
v 3.6 2.4 -1.2
v 1.7 2.4 -1.4
v 1.8 2.4 -1.4
v 2.2 2.4 -1.4
v 2.3 2.4 -1.4
v 3.6 2.4 -1.4
v 3.7 2.4 -1.4
v 1.9 2.4 -1.6
v 2 2.4 -1.6
v 2.2 2.4 -1.6
v 2.3 2.4 -1.6
v 1.7 2.4 -1.7
v 1.8 2.4 -1.7
v 1.9 2.4 -1.7
v 2 2.4 -1.7
v 1.7 2.4 -1.9
v 1.8 2.4 -1.9
v 3.2 2.4 -1.9
v 3.3 2.4 -1.9
v 1.7 2.4 -2
v 1.8 2.4 -2
v 3.6 2.4 -2
v 3.7 2.4 -2
v 1.8 2.4 -2.2
v 1.9 2.4 -2.2
v 2.7 2.4 -2.2
v 2.8 2.4 -2.2
v 3.2 2.4 -2.2
v 3.3 2.4 -2.2
v 3.5 2.4 -2.2
v 3.6 2.4 -2.2
v 1.9 2.4 -2.4
v 2 2.4 -2.4
v 3.4 2.4 -2.4
v 3.5 2.4 -2.4
v 2 2.4 -2.5
v 2.2 2.4 -2.5
v 2.7 2.4 -2.5
v 2.8 2.4 -2.5
v 3.2 2.4 -2.5
v 3.4 2.4 -2.5
v 2.2 2.4 -2.6
v 2.4 2.4 -2.6
v 3 2.4 -2.6
v 3.2 2.4 -2.6
v 2.4 2.4 -2.7
v 2.5 2.4 -2.7
v 2.9 2.4 -2.7
v 3 2.4 -2.7
v 1.5 4.1 -1.6
v 1.6 4.1 -1.6
v 1.5 4.1 -1.7
v 1.6 4.1 -1.7
v 1.6 4.2 -1.6
v 1.8 4.2 -1.6
v 1.6 4.2 -1.7
v 1.8 4.2 -1.7
v 1.8 4.3 -1.6
v 1.9 4.3 -1.6
v 1.8 4.3 -1.7
v 1.9 4.3 -1.7
v 1.9 4.4 -1.6
v 2 4.4 -1.6
v 1.9 4.4 -1.7
v 2 4.4 -1.7

# faces
f 3/6/1 2/6/1 1/6/1
f 4/6/1 2/6/1 3/6/1
f 7/6/1 6/6/1 5/6/1
f 8/6/1 6/6/1 7/6/1
f 11/6/1 10/6/1 9/6/1
f 12/6/1 10/6/1 11/6/1
f 16/2/1 14/2/1 13/2/1
f 17/2/1 14/2/1 16/2/1
f 19/4/1 16/4/1 15/4/1
f 19/4/1 18/4/1 17/4/1
f 19/4/1 17/4/1 16/4/1
f 20/4/1 18/4/1 19/4/1
f 21/4/1 19/4/1 15/4/1
f 22/5/1 20/5/1 19/5/1
f 22/4/1 19/4/1 21/4/1
f 23/4/1 18/4/1 20/4/1
f 23/5/1 20/5/1 22/5/1
f 24/4/1 18/4/1 23/4/1
f 29/4/1 26/4/1 25/4/1
f 30/4/1 26/4/1 29/4/1
f 31/4/1 28/4/1 27/4/1
f 32/4/1 28/4/1 31/4/1
f 35/6/1 34/6/1 33/6/1
f 36/6/1 34/6/1 35/6/1
f 39/6/1 38/6/1 37/6/1
f 40/6/1 38/6/1 39/6/1
f 45/5/1 42/5/1 41/5/1
f 46/5/1 42/5/1 45/5/1
f 49/5/1 44/5/1 43/5/1
f 50/5/1 44/5/1 49/5/1
f 51/3/1 48/3/1 47/3/1
f 52/3/1 48/3/1 51/3/1
f 55/3/1 54/3/1 53/3/1
f 56/3/1 54/3/1 55/3/1
f 61/4/1 58/4/1 57/4/1
f 62/4/1 58/4/1 61/4/1
f 63/4/1 60/4/1 59/4/1
f 64/4/1 60/4/1 63/4/1
f 69/4/1 66/4/1 65/4/1
f 70/4/1 66/4/1 69/4/1
f 71/4/1 68/4/1 67/4/1
f 72/4/1 68/4/1 71/4/1
f 77/5/1 74/5/1 73/5/1
f 78/5/1 74/5/1 77/5/1
f 79/5/1 76/5/1 75/5/1
f 80/5/1 76/5/1 79/5/1
f 93/2/1 82/2/1 81/2/1
f 94/1/1 83/1/1 82/1/1
f 94/2/1 82/2/1 93/2/1
f 95/2/1 84/2/1 83/2/1
f 95/1/1 83/1/1 94/1/1
f 96/1/1 85/1/1 84/1/1
f 96/2/1 84/2/1 95/2/1
f 97/2/1 86/2/1 85/2/1
f 97/1/1 85/1/1 96/1/1
f 98/2/1 86/2/1 97/2/1
f 99/2/1 88/2/1 87/2/1
f 100/1/1 89/1/1 88/1/1
f 100/2/1 88/2/1 99/2/1
f 101/2/1 90/2/1 89/2/1
f 101/1/1 89/1/1 100/1/1
f 102/1/1 91/1/1 90/1/1
f 102/2/1 90/2/1 101/2/1
f 103/2/1 92/2/1 91/2/1
f 103/1/1 91/1/1 102/1/1
f 104/2/1 92/2/1 103/2/1
f 105/3/2 106/3/2 107/3/2
f 107/3/2 106/3/2 108/3/2
f 109/2/2 110/2/2 121/2/2
f 110/1/2 111/1/2 122/1/2
f 121/2/2 110/2/2 122/2/2
f 111/2/2 112/2/2 123/2/2
f 122/1/2 111/1/2 123/1/2
f 112/1/2 113/1/2 124/1/2
f 123/2/2 112/2/2 124/2/2
f 113/2/2 114/2/2 125/2/2
f 124/1/2 113/1/2 125/1/2
f 125/2/2 114/2/2 126/2/2
f 115/2/2 116/2/2 127/2/2
f 116/1/2 117/1/2 128/1/2
f 127/2/2 116/2/2 128/2/2
f 117/2/2 118/2/2 129/2/2
f 128/1/2 117/1/2 129/1/2
f 118/1/2 119/1/2 130/1/2
f 129/2/2 118/2/2 130/2/2
f 119/2/2 120/2/2 131/2/2
f 130/1/2 119/1/2 131/1/2
f 131/2/2 120/2/2 132/2/2
f 133/5/2 134/5/2 137/5/2
f 137/5/2 134/5/2 138/5/2
f 135/5/2 136/5/2 139/5/2
f 139/5/2 136/5/2 140/5/2
f 141/4/2 142/4/2 145/4/2
f 141/4/2 145/4/2 146/4/2
f 146/4/2 145/4/2 147/4/2
f 143/4/2 144/4/2 148/4/2
f 148/4/2 144/4/2 149/4/2
f 150/4/2 151/4/2 154/4/2
f 154/4/2 151/4/2 155/4/2
f 152/4/2 153/4/2 156/4/2
f 156/4/2 153/4/2 157/4/2
f 158/5/2 159/5/2 162/5/2
f 162/5/2 159/5/2 163/5/2
f 160/5/2 161/5/2 164/5/2
f 164/5/2 161/5/2 165/5/2
f 166/4/2 167/4/2 170/4/2
f 170/4/2 167/4/2 171/4/2
f 168/4/2 169/4/2 172/4/2
f 172/4/2 169/4/2 173/4/2
f 174/2/2 175/2/2 177/2/2
f 177/2/2 175/2/2 178/2/2
f 176/4/2 177/4/2 180/4/2
f 178/4/2 179/4/2 180/4/2
f 177/4/2 178/4/2 180/4/2
f 180/4/2 179/4/2 181/4/2
f 184/5/3 183/5/3 182/5/3
f 185/5/3 183/5/3 184/5/3
f 187/4/3 185/4/3 184/4/3
f 188/2/3 187/2/3 186/2/3
f 189/4/3 185/4/3 187/4/3
f 189/2/3 187/2/3 188/2/3
f 190/4/3 185/4/3 189/4/3
f 191/4/3 185/4/3 190/4/3
f 192/5/3 191/5/3 190/5/3
f 193/5/3 191/5/3 192/5/3
f 196/4/3 195/4/3 194/4/3
f 197/4/3 195/4/3 196/4/3
f 200/4/3 199/4/3 198/4/3
f 201/4/3 199/4/3 200/4/3
f 204/4/3 203/4/3 202/4/3
f 205/4/3 203/4/3 204/4/3
f 209/4/3 207/4/3 206/4/3
f 209/5/3 208/5/3 207/5/3
f 210/5/3 208/5/3 209/5/3
f 211/4/3 209/4/3 206/4/3
f 211/4/3 210/4/3 209/4/3
f 212/4/3 210/4/3 211/4/3
f 215/5/3 214/5/3 213/5/3
f 216/5/3 214/5/3 215/5/3
f 219/5/3 218/5/3 217/5/3
f 220/5/3 218/5/3 219/5/3
f 223/4/3 222/4/3 221/4/3
f 224/4/3 222/4/3 223/4/3
f 227/4/3 226/4/3 225/4/3
f 228/4/3 226/4/3 227/4/3
f 231/4/3 230/4/3 229/4/3
f 232/4/3 230/4/3 231/4/3
f 235/4/3 234/4/3 233/4/3
f 236/4/3 234/4/3 235/4/3
f 240/6/3 238/6/3 237/6/3
f 241/6/3 238/6/3 240/6/3
f 246/6/3 240/6/3 239/6/3
f 246/6/3 241/6/3 240/6/3
f 246/6/3 242/6/3 241/6/3
f 247/6/3 242/6/3 246/6/3
f 249/2/3 244/2/3 243/2/3
f 250/2/3 244/2/3 249/2/3
f 252/6/3 248/6/3 247/6/3
f 252/6/3 246/6/3 245/6/3
f 252/6/3 247/6/3 246/6/3
f 253/6/3 248/6/3 252/6/3
f 255/1/3 250/1/3 249/1/3
f 256/1/3 250/1/3 255/1/3
f 257/3/3 254/3/3 253/3/3
f 257/3/3 252/3/3 251/3/3
f 257/3/3 253/3/3 252/3/3
f 258/3/3 254/3/3 257/3/3
f 259/2/3 256/2/3 255/2/3
f 260/2/3 256/2/3 259/2/3
f 261/1/3 260/1/3 259/1/3
f 262/1/3 260/1/3 261/1/3
f 263/2/3 262/2/3 261/2/3
f 264/2/3 262/2/3 263/2/3
f 267/2/3 266/2/3 265/2/3
f 268/2/3 266/2/3 267/2/3
f 269/1/3 268/1/3 267/1/3
f 270/1/3 268/1/3 269/1/3
f 271/2/3 270/2/3 269/2/3
f 272/2/3 270/2/3 271/2/3
f 273/1/3 272/1/3 271/1/3
f 274/1/3 272/1/3 273/1/3
f 275/2/3 274/2/3 273/2/3
f 276/2/3 274/2/3 275/2/3
f 277/6/4 278/6/4 280/6/4
f 280/6/4 278/6/4 281/6/4
f 279/6/4 280/6/4 284/6/4
f 281/6/4 282/6/4 284/6/4
f 280/6/4 281/6/4 284/6/4
f 284/6/4 282/6/4 285/6/4
f 283/6/4 284/6/4 288/6/4
f 285/6/4 286/6/4 288/6/4
f 284/6/4 285/6/4 288/6/4
f 288/6/4 286/6/4 289/6/4
f 287/3/4 288/3/4 291/3/4
f 289/3/4 290/3/4 291/3/4
f 288/3/4 289/3/4 291/3/4
f 291/3/4 290/3/4 292/3/4
f 293/2/4 294/2/4 295/2/4
f 295/2/4 294/2/4 296/2/4
f 295/1/4 296/1/4 297/1/4
f 297/1/4 296/1/4 298/1/4
f 297/2/4 298/2/4 299/2/4
f 299/2/4 298/2/4 300/2/4
f 299/1/4 300/1/4 301/1/4
f 301/1/4 300/1/4 302/1/4
f 301/2/4 302/2/4 303/2/4
f 303/2/4 302/2/4 304/2/4
f 305/2/4 306/2/4 307/2/4
f 307/2/4 306/2/4 308/2/4
f 307/1/4 308/1/4 309/1/4
f 309/1/4 308/1/4 310/1/4
f 309/2/4 310/2/4 311/2/4
f 311/2/4 310/2/4 312/2/4
f 311/1/4 312/1/4 313/1/4
f 313/1/4 312/1/4 314/1/4
f 313/2/4 314/2/4 315/2/4
f 315/2/4 314/2/4 316/2/4
f 317/4/4 318/4/4 319/4/4
f 319/4/4 318/4/4 320/4/4
f 321/4/4 322/4/4 323/4/4
f 323/4/4 322/4/4 324/4/4
f 325/4/4 326/4/4 327/4/4
f 327/4/4 326/4/4 328/4/4
f 329/4/4 330/4/4 331/4/4
f 331/4/4 330/4/4 332/4/4
f 333/5/4 334/5/4 335/5/4
f 335/5/4 334/5/4 336/5/4
f 337/5/4 338/5/4 339/5/4
f 339/5/4 338/5/4 340/5/4
f 341/4/4 342/4/4 343/4/4
f 343/4/4 342/4/4 344/4/4
f 345/4/4 346/4/4 347/4/4
f 347/4/4 346/4/4 348/4/4
f 349/4/4 350/4/4 351/4/4
f 351/4/4 350/4/4 352/4/4
f 353/4/4 354/4/4 355/4/4
f 355/4/4 354/4/4 356/4/4
f 357/5/4 358/5/4 359/5/4
f 359/5/4 358/5/4 360/5/4
f 359/4/4 360/4/4 362/4/4
f 361/2/4 362/2/4 363/2/4
f 362/4/4 360/4/4 364/4/4
f 363/2/4 362/2/4 364/2/4
f 364/4/4 360/4/4 365/4/4
f 365/4/4 360/4/4 366/4/4
f 365/5/4 366/5/4 367/5/4
f 367/5/4 366/5/4 368/5/4
f 371/2/5 370/2/5 369/2/5
f 372/2/5 370/2/5 371/2/5
f 373/1/5 372/1/5 371/1/5
f 374/1/5 372/1/5 373/1/5
f 375/2/5 374/2/5 373/2/5
f 376/2/5 374/2/5 375/2/5
f 377/1/5 376/1/5 375/1/5
f 378/1/5 376/1/5 377/1/5
f 384/2/5 378/2/5 377/2/5
f 385/2/5 378/2/5 384/2/5
f 391/2/5 380/2/5 379/2/5
f 392/1/5 381/1/5 380/1/5
f 392/2/5 380/2/5 391/2/5
f 393/2/5 382/2/5 381/2/5
f 393/1/5 381/1/5 392/1/5
f 394/1/5 383/1/5 382/1/5
f 394/2/5 382/2/5 393/2/5
f 395/2/5 385/2/5 384/2/5
f 395/1/5 383/1/5 394/1/5
f 395/2/5 384/2/5 383/2/5
f 395/2/5 386/2/5 385/2/5
f 396/2/5 386/2/5 395/2/5
f 397/2/5 386/2/5 396/2/5
f 398/1/5 387/1/5 386/1/5
f 398/2/5 386/2/5 397/2/5
f 399/2/5 388/2/5 387/2/5
f 399/1/5 387/1/5 398/1/5
f 400/1/5 389/1/5 388/1/5
f 400/2/5 388/2/5 399/2/5
f 401/2/5 390/2/5 389/2/5
f 401/1/5 389/1/5 400/1/5
f 402/2/5 390/2/5 401/2/5
f 403/2/5 397/2/5 396/2/5
f 404/2/5 397/2/5 403/2/5
f 405/1/5 404/1/5 403/1/5
f 406/1/5 404/1/5 405/1/5
f 407/2/5 406/2/5 405/2/5
f 408/2/5 406/2/5 407/2/5
f 409/1/5 408/1/5 407/1/5
f 410/1/5 408/1/5 409/1/5
f 411/2/5 410/2/5 409/2/5
f 412/2/5 410/2/5 411/2/5
f 420/5/5 414/5/5 413/5/5
f 421/4/5 415/4/5 414/4/5
f 421/5/5 414/5/5 420/5/5
f 422/5/5 418/5/5 417/5/5
f 422/4/5 417/4/5 416/4/5
f 423/5/5 418/5/5 422/5/5
f 426/4/5 420/4/5 419/4/5
f 426/4/5 421/4/5 420/4/5
f 427/4/5 415/4/5 421/4/5
f 427/4/5 421/4/5 426/4/5
f 428/4/5 424/4/5 423/4/5
f 428/4/5 423/4/5 422/4/5
f 428/4/5 422/4/5 416/4/5
f 429/4/5 424/4/5 428/4/5
f 432/4/5 426/4/5 425/4/5
f 432/4/5 427/4/5 426/4/5
f 433/4/5 427/4/5 432/4/5
f 434/4/5 430/4/5 429/4/5
f 434/4/5 429/4/5 428/4/5
f 435/4/5 430/4/5 434/4/5
f 438/5/5 432/5/5 431/5/5
f 439/4/5 433/4/5 432/4/5
f 439/5/5 432/5/5 438/5/5
f 440/5/5 436/5/5 435/5/5
f 440/4/5 435/4/5 434/4/5
f 441/5/5 436/5/5 440/5/5
f 443/4/5 438/4/5 437/4/5
f 443/4/5 433/4/5 439/4/5
f 443/4/5 439/4/5 438/4/5
f 444/4/5 442/4/5 441/4/5
f 444/4/5 441/4/5 440/4/5
f 444/4/5 440/4/5 434/4/5
f 446/4/5 443/4/5 437/4/5
f 447/4/5 443/4/5 446/4/5
f 448/4/5 442/4/5 444/4/5
f 449/4/5 442/4/5 448/4/5
f 451/4/5 447/4/5 446/4/5
f 451/4/5 446/4/5 445/4/5
f 452/4/5 447/4/5 451/4/5
f 453/4/5 447/4/5 452/4/5
f 454/4/5 447/4/5 453/4/5
f 455/4/5 447/4/5 454/4/5
f 456/4/5 447/4/5 455/4/5
f 457/4/5 450/4/5 449/4/5
f 457/4/5 449/4/5 448/4/5
f 458/4/5 450/4/5 457/4/5
f 459/4/5 450/4/5 458/4/5
f 460/4/5 450/4/5 459/4/5
f 461/4/5 450/4/5 460/4/5
f 462/4/5 450/4/5 461/4/5
f 475/4/5 464/4/5 463/4/5
f 475/4/5 465/4/5 464/4/5
f 475/4/5 466/4/5 465/4/5
f 475/4/5 467/4/5 466/4/5
f 475/4/5 468/4/5 467/4/5
f 476/4/5 468/4/5 475/4/5
f 477/4/5 474/4/5 473/4/5
f 477/4/5 473/4/5 472/4/5
f 477/4/5 472/4/5 471/4/5
f 477/4/5 471/4/5 470/4/5
f 477/4/5 470/4/5 469/4/5
f 478/4/5 474/4/5 477/4/5
f 479/4/5 468/4/5 476/4/5
f 480/4/5 477/4/5 469/4/5
f 481/4/5 479/4/5 476/4/5
f 482/4/5 479/4/5 481/4/5
f 483/4/5 479/4/5 482/4/5
f 484/4/5 479/4/5 483/4/5
f 485/4/5 477/4/5 480/4/5
f 486/4/5 477/4/5 485/4/5
f 487/4/5 477/4/5 486/4/5
f 488/4/5 477/4/5 487/4/5
f 489/5/5 483/5/5 482/5/5
f 490/4/5 484/4/5 483/4/5
f 490/5/5 483/5/5 489/5/5
f 491/4/5 484/4/5 490/4/5
f 492/4/5 486/4/5 485/4/5
f 493/5/5 487/5/5 486/5/5
f 493/4/5 486/4/5 492/4/5
f 494/5/5 487/5/5 493/5/5
f 495/4/5 491/4/5 490/4/5
f 496/4/5 491/4/5 495/4/5
f 497/4/5 491/4/5 496/4/5
f 498/4/5 493/4/5 492/4/5
f 499/4/5 493/4/5 498/4/5
f 500/4/5 493/4/5 499/4/5
f 501/4/5 497/4/5 496/4/5
f 502/4/5 497/4/5 501/4/5
f 503/4/5 497/4/5 502/4/5
f 504/4/5 499/4/5 498/4/5
f 505/4/5 499/4/5 504/4/5
f 506/4/5 499/4/5 505/4/5
f 507/5/5 503/5/5 502/5/5
f 508/4/5 497/4/5 503/4/5
f 508/5/5 503/5/5 507/5/5
f 509/4/5 497/4/5 508/4/5
f 510/4/5 504/4/5 498/4/5
f 511/5/5 505/5/5 504/5/5
f 511/4/5 504/4/5 510/4/5
f 512/5/5 505/5/5 511/5/5
f 515/6/5 514/6/5 513/6/5
f 516/6/5 514/6/5 515/6/5
f 519/6/5 518/6/5 517/6/5
f 520/6/5 518/6/5 519/6/5
f 523/6/5 522/6/5 521/6/5
f 524/6/5 522/6/5 523/6/5
f 525/5/6 526/5/6 530/5/6
f 527/5/6 528/5/6 531/5/6
f 529/4/6 530/4/6 534/4/6
f 526/4/6 527/4/6 535/4/6
f 535/4/6 527/4/6 536/4/6
f 531/4/6 532/4/6 537/4/6
f 533/4/6 534/4/6 541/4/6
f 538/4/6 539/4/6 542/4/6
f 531/4/6 537/4/6 544/4/6
f 537/5/6 538/5/6 544/5/6
f 538/4/6 542/4/6 545/4/6
f 544/5/6 538/5/6 545/5/6
f 540/5/6 541/5/6 547/5/6
f 526/4/6 535/4/6 548/4/6
f 535/5/6 536/5/6 548/5/6
f 536/4/6 527/4/6 549/4/6
f 548/5/6 536/5/6 549/5/6
f 542/5/6 543/5/6 550/5/6
f 546/4/6 547/4/6 553/4/6
f 534/4/6 530/4/6 554/4/6
f 541/4/6 534/4/6 554/4/6
f 554/4/6 530/4/6 555/4/6
f 550/4/6 551/4/6 556/4/6
f 552/4/6 553/4/6 558/4/6
f 547/5/6 541/5/6 558/5/6
f 553/4/6 547/4/6 558/4/6
f 541/4/6 554/4/6 559/4/6
f 558/5/6 541/5/6 559/5/6
f 554/5/6 555/5/6 560/5/6
f 559/4/6 554/4/6 560/4/6
f 555/4/6 530/4/6 561/4/6
f 560/5/6 555/5/6 561/5/6
f 552/4/6 558/4/6 562/4/6
f 562/4/6 558/4/6 563/4/6
f 563/4/6 558/4/6 564/4/6
f 559/4/6 560/4/6 565/4/6
f 560/4/6 561/4/6 565/4/6
f 562/5/6 563/5/6 566/5/6
f 563/4/6 564/4/6 567/4/6
f 566/5/6 563/5/6 567/5/6
f 531/4/6 544/4/6 568/4/6
f 544/4/6 545/4/6 568/4/6
f 545/4/6 542/4/6 569/4/6
f 568/4/6 545/4/6 569/4/6
f 566/4/6 567/4/6 570/4/6
f 567/4/6 564/4/6 571/4/6
f 570/4/6 567/4/6 571/4/6
f 556/4/6 557/4/6 572/4/6
f 550/4/6 556/4/6 572/4/6
f 572/4/6 557/4/6 573/4/6
f 571/4/6 564/4/6 574/4/6
f 564/5/6 565/5/6 575/5/6
f 574/4/6 564/4/6 575/4/6
f 549/4/6 527/4/6 576/4/6
f 548/4/6 549/4/6 576/4/6
f 576/4/6 527/4/6 577/4/6
f 531/4/6 568/4/6 578/4/6
f 568/5/6 569/5/6 578/5/6
f 569/4/6 542/4/6 579/4/6
f 578/5/6 569/5/6 579/5/6
f 550/4/6 572/4/6 580/4/6
f 542/5/6 550/5/6 580/5/6
f 580/4/6 572/4/6 581/4/6
f 575/5/6 565/5/6 582/5/6
f 565/4/6 561/4/6 583/4/6
f 582/5/6 565/5/6 583/5/6
f 579/4/6 542/4/6 584/4/6
f 542/5/6 580/5/6 584/5/6
f 578/4/6 579/4/6 584/4/6
f 584/5/6 580/5/6 585/5/6
f 583/4/6 561/4/6 586/4/6
f 586/4/6 561/4/6 587/4/6
f 548/4/6 576/4/6 588/4/6
f 576/5/6 577/5/6 588/5/6
f 577/4/6 527/4/6 589/4/6
f 588/5/6 577/5/6 589/5/6
f 531/4/6 578/4/6 590/4/6
f 578/4/6 584/4/6 590/4/6
f 590/4/6 584/4/6 591/4/6
f 587/4/6 561/4/6 592/4/6
f 530/5/6 526/5/6 593/5/6
f 592/4/6 561/4/6 593/4/6
f 561/4/6 530/4/6 593/4/6
f 527/5/6 531/5/6 594/5/6
f 531/4/6 590/4/6 594/4/6
f 594/4/6 590/4/6 595/4/6
f 593/5/6 526/5/6 596/5/6
f 526/4/6 548/4/6 597/4/6
f 596/5/6 526/5/6 597/5/6
f 548/4/6 588/4/6 597/4/6
f 588/4/6 589/4/6 597/4/6
f 527/5/6 594/5/6 598/5/6
f 597/4/6 589/4/6 598/4/6
f 589/4/6 527/4/6 598/4/6
f 598/5/6 594/5/6 599/5/6
f 600/6/6 601/6/6 602/6/6
f 602/6/6 601/6/6 603/6/6
f 604/6/6 605/6/6 606/6/6
f 606/6/6 605/6/6 607/6/6
f 608/6/6 609/6/6 610/6/6
f 610/6/6 609/6/6 611/6/6
f 612/3/6 613/3/6 614/3/6
f 614/3/6 613/3/6 615/3/6
